<?xml version="1.0" standalone="no"?>
<!DOCTYPE svg PUBLIC "-//W3C//DTD SVG 20010904//EN"
 "http://www.w3.org/TR/2001/REC-SVG-20010904/DTD/svg10.dtd">
<svg version="1.0" xmlns="http://www.w3.org/2000/svg"
 width="1280.000000pt" height="883.000000pt" viewBox="0 0 1280.000000 883.000000"
 preserveAspectRatio="xMidYMid meet">
<g transform="translate(0.000000,883.000000) scale(0.100000,-0.100000)"
fill="#000000" stroke="none">
<path d="M3833 8809 c-131 -24 -199 -50 -272 -104 -136 -100 -212 -255 -212
-436 -1 -142 18 -219 116 -474 31 -82 385 -1018 786 -2080 401 -1061 745
-1964 765 -2005 134 -284 401 -524 695 -624 174 -59 59 -56 2358 -56 1388 0
2128 4 2171 10 355 56 692 305 862 636 52 102 1640 4300 1663 4396 8 35 19 82
25 106 12 52 13 110 1 148 -5 16 -14 54 -21 84 -19 82 -66 167 -129 233 -88
93 -169 133 -340 167 -94 19 -173 20 -4231 19 -4013 -1 -4138 -1 -4237 -20z"/>
<path d="M535 7250 c-115 -8 -185 -31 -274 -91 -116 -77 -190 -182 -235 -330
-31 -102 -33 -165 -6 -262 56 -202 192 -353 379 -421 55 -20 79 -21 1000 -26
l945 -5 251 -585 c139 -322 415 -967 614 -1435 626 -1465 872 -2028 900 -2058
14 -16 100 -79 191 -139 91 -61 187 -127 215 -147 l50 -36 407 4 c254 2 408 0
408 -6 0 -5 -40 -39 -88 -76 -164 -122 -276 -290 -334 -502 -25 -89 -34 -285
-19 -383 53 -341 326 -635 659 -710 188 -42 227 -46 315 -33 248 39 394 103
534 235 135 127 220 265 264 431 31 116 32 317 1 438 -29 118 -72 214 -137
313 -58 86 -180 209 -246 246 -21 12 -39 28 -39 35 0 11 291 13 1640 13 1025
0 1640 -4 1640 -9 0 -6 -26 -27 -57 -48 -77 -50 -179 -153 -232 -231 -110
-163 -162 -335 -163 -532 0 -210 45 -351 165 -520 138 -192 329 -311 577 -356
147 -28 186 -28 315 -1 223 46 351 111 487 249 135 135 217 288 248 464 18
100 8 307 -19 409 -55 210 -186 395 -364 517 -32 21 -55 43 -53 47 3 5 61 11
128 14 202 9 307 48 423 159 127 120 181 258 172 438 -8 159 -60 276 -175 386
-32 30 -88 70 -127 90 -139 68 72 64 -3055 64 -1556 0 -2835 2 -2843 5 -7 3
-403 916 -878 2028 -732 1713 -869 2027 -899 2057 -50 50 -393 271 -454 292
-48 16 -122 17 -1091 16 -572 -1 -1085 -4 -1140 -8z"/>
</g>
</svg>
